<?xml version="1.0" ?><svg viewBox="0 0 64 64" xmlns="http://www.w3.org/2000/svg"><defs><style>.cls-1{fill:#3279ea;}.cls-2{fill:#7aadf9;}.cls-3{fill:#c8cded;}</style></defs><title/><g data-name="Layer 9" id="Layer_9"><circle class="cls-1" cx="32" cy="16" r="6"/><circle class="cls-1" cx="41" cy="7" r="2"/><path class="cls-2" d="M39.07,7.51l-5.78,5.78,1.42,1.42,5.78-5.78A2,2,0,0,1,39.07,7.51Z"/><circle class="cls-1" cx="44" cy="16" r="2"/><path class="cls-2" d="M42.28,17a1.93,1.93,0,0,1,0-2H37.91A6.64,6.64,0,0,1,38,16a6.64,6.64,0,0,1-.09,1Z"/><circle class="cls-1" cx="23" cy="7" r="2"/><path class="cls-2" d="M24.93,7.51a2,2,0,0,1-1.42,1.42l5.78,5.78,1.42-1.42Z"/><circle class="cls-1" cx="41" cy="25" r="2"/><path class="cls-2" d="M40.49,23.07l-5.78-5.78-1.42,1.42,5.78,5.78A2,2,0,0,1,40.49,23.07Z"/><circle class="cls-1" cx="23" cy="25" r="2"/><path class="cls-2" d="M24.93,24.49l5.78-5.78-1.42-1.42-5.78,5.78A2,2,0,0,1,24.93,24.49Z"/><circle class="cls-1" cx="20" cy="16" r="2"/><path class="cls-2" d="M26.09,15H21.72a1.93,1.93,0,0,1,0,2h4.37A6.64,6.64,0,0,1,26,16,6.64,6.64,0,0,1,26.09,15Z"/><circle class="cls-1" cx="32" cy="4" r="2"/><path class="cls-2" d="M32,6a2,2,0,0,1-1-.28v4.37a5.6,5.6,0,0,1,2,0V5.72A2,2,0,0,1,32,6Z"/><circle class="cls-1" cx="32" cy="28" r="2"/><path class="cls-2" d="M32,26a2,2,0,0,1,1,.28V21.91a5.6,5.6,0,0,1-2,0v4.37A2,2,0,0,1,32,26Z"/><path class="cls-3" d="M10,34H8V22a7,7,0,0,1,7-7v2a5,5,0,0,0-5,5Z"/><path class="cls-3" d="M56,34H54V22a5,5,0,0,0-5-5V15a7,7,0,0,1,7,7Z"/><circle class="cls-1" cx="48" cy="48" r="6"/><circle class="cls-1" cx="57" cy="39" r="2"/><path class="cls-2" d="M55.07,39.51l-5.78,5.78,1.42,1.42,5.78-5.78A2,2,0,0,1,55.07,39.51Z"/><circle class="cls-1" cx="60" cy="48" r="2"/><path class="cls-2" d="M58.28,49a1.93,1.93,0,0,1,0-2H53.91a5.6,5.6,0,0,1,0,2Z"/><circle class="cls-1" cx="39" cy="39" r="2"/><path class="cls-2" d="M40.93,39.51a2,2,0,0,1-1.42,1.42l5.78,5.78,1.42-1.42Z"/><circle class="cls-1" cx="57" cy="57" r="2"/><path class="cls-2" d="M56.49,55.07l-5.78-5.78-1.42,1.42,5.78,5.78A2,2,0,0,1,56.49,55.07Z"/><circle class="cls-1" cx="39" cy="57" r="2"/><path class="cls-2" d="M40.93,56.49l5.78-5.78-1.42-1.42-5.78,5.78A2,2,0,0,1,40.93,56.49Z"/><circle class="cls-1" cx="36" cy="48" r="2"/><path class="cls-2" d="M42.09,47H37.72a1.93,1.93,0,0,1,0,2h4.37a5.6,5.6,0,0,1,0-2Z"/><circle class="cls-1" cx="48" cy="36" r="2"/><path class="cls-2" d="M48,38a2,2,0,0,1-1-.28v4.37a5.6,5.6,0,0,1,2,0V37.72A2,2,0,0,1,48,38Z"/><circle class="cls-1" cx="48" cy="60" r="2"/><path class="cls-2" d="M48,58a2,2,0,0,1,1,.28V53.91a5.6,5.6,0,0,1-2,0v4.37A2,2,0,0,1,48,58Z"/><circle class="cls-1" cx="16" cy="48" r="6"/><circle class="cls-1" cx="25" cy="39" r="2"/><path class="cls-2" d="M23.07,39.51l-5.78,5.78,1.42,1.42,5.78-5.78A2,2,0,0,1,23.07,39.51Z"/><circle class="cls-1" cx="28" cy="48" r="2"/><path class="cls-2" d="M26.28,49a1.93,1.93,0,0,1,0-2H21.91a5.6,5.6,0,0,1,0,2Z"/><circle class="cls-1" cx="7" cy="39" r="2"/><path class="cls-2" d="M8.93,39.51a2,2,0,0,1-1.42,1.42l5.78,5.78,1.42-1.42Z"/><circle class="cls-1" cx="25" cy="57" r="2"/><path class="cls-2" d="M24.49,55.07l-5.78-5.78-1.42,1.42,5.78,5.78A2,2,0,0,1,24.49,55.07Z"/><circle class="cls-1" cx="7" cy="57" r="2"/><path class="cls-2" d="M8.93,56.49l5.78-5.78-1.42-1.42L7.51,55.07A2,2,0,0,1,8.93,56.49Z"/><circle class="cls-1" cx="4" cy="48" r="2"/><path class="cls-2" d="M10.09,47H5.72a1.93,1.93,0,0,1,0,2h4.37a5.6,5.6,0,0,1,0-2Z"/><circle class="cls-1" cx="16" cy="36" r="2"/><path class="cls-2" d="M16,38a2,2,0,0,1-1-.28v4.37A6.64,6.64,0,0,1,16,42a6.64,6.64,0,0,1,1,.09V37.72A2,2,0,0,1,16,38Z"/><circle class="cls-1" cx="16" cy="60" r="2"/><path class="cls-2" d="M16,58a2,2,0,0,1,1,.28V53.91A6.64,6.64,0,0,1,16,54a6.64,6.64,0,0,1-1-.09v4.37A2,2,0,0,1,16,58Z"/></g></svg>